<?xml version="1.0" encoding="UTF-8" standalone="no"?>
<svg width="144px" height="45px" viewBox="0 0 144 45" version="1.1" xmlns="http://www.w3.org/2000/svg" xmlns:xlink="http://www.w3.org/1999/xlink">
    <!-- Generator: Sketch 3.6.1 (26313) - http://www.bohemiancoding.com/sketch -->
    <title>bbvalogo</title>
    <desc>Created with Sketch.</desc>
    <defs></defs>
    <g id="Page-3" stroke="none" stroke-width="1" fill="none" fill-rule="evenodd">
        <g id="0_splash-copy" transform="translate(-64.000000, -201.000000)" fill="#FFFFFF">
            <g id="bbva-logo" transform="translate(64.000000, 201.000000)">
                <path d="M25.2111559,17.8030778 L27.3877526,14.5670056 C31.9925542,7.71531892 28.8220123,0.288062795 19.7294254,0.288062795 L0.329224182,0.288062795 L0.329224182,44.9516986 L19.046753,44.9516986 C35.5067449,44.9516986 40.4672207,25.7419512 25.2111559,17.8030778 Z M56.7439179,44.952023 L38.0259266,44.952023 L38.0259266,0.287923768 L57.4265904,0.287923768 C66.5187147,0.287923768 69.6892566,7.7151799 65.0839925,14.5668665 L62.9073958,17.8034022 C78.1648482,25.7422756 73.2034473,44.952023 56.7439179,44.952023 Z M101.02212,0.288062795 L108.055589,0.288062795 L94.4724414,44.9354789 L83.7800143,44.928991 L69.2093971,0.294087274 L77.0804812,0.288062795 C80.1233689,0.288062795 80.9212077,1.07448905 82.511335,6.13180771 L90.9453002,34.2007836 L101.02212,0.288062795 Z M130.389154,4.84984486 C129.1325,1.12439955 128.287022,0.302289834 124.993451,0.302289834 L116.478546,0.295801933 L102.838972,44.9409009 L109.790113,44.9409009 L112.712284,35.3035877 L128.924831,35.3035877 L131.861802,44.9371935 L143.907087,44.9371935 L130.389154,4.84984486 Z M114.663174,28.765174 L120.748024,8.39965343 L126.916127,28.765174 L114.663174,28.765174 Z M54.5192196,19.9407021 L58.2355295,14.3824248 C59.175823,12.9889164 59.3747045,12.1125864 59.3747045,11.1361573 C59.3747045,8.40660475 56.9802632,6.11591235 54.2232099,6.11591235 L48.5088343,6.11591235 L48.5088343,38.9548856 L51.673826,38.9548856 C56.9724004,38.9548856 60.9921203,36.0895505 60.9921203,29.3736464 C60.9921203,23.8362231 58.3987974,20.8800574 54.5192196,19.9407021 Z M13.976661,38.9550246 L10.8121318,38.9550246 L10.8121318,6.11605138 L16.5265075,6.11605138 C19.2830982,6.11605138 21.6780021,8.40674378 21.6780021,11.1362963 C21.6780021,12.1127254 21.478658,12.988592 20.5388271,14.3821004 L16.8220547,19.9408411 C20.7016324,20.8801964 23.2949553,23.8363621 23.2949553,29.3737854 C23.2949553,36.0892261 19.2752355,38.9550246 13.976661,38.9550246 Z" id="bbvalogo"></path>
            </g>
        </g>
    </g>
</svg>