<svg xmlns="http://www.w3.org/2000/svg" xmlns:xlink="http://www.w3.org/1999/xlink" viewBox="0 0 50 50"><defs><style>.a,.b{fill:none;}.a{clip-rule:evenodd;}.c{clip-path:url(#a);}.d{clip-path:url(#b);}.e{fill:#fff;}.f{clip-path:url(#c);}.g{clip-path:url(#d);}</style><clipPath id="a"><path class="a" d="M25.06,26.93A13.9,13.9,0,0,0,15.18,31a0.84,0.84,0,1,0,1.19,1.19,12.27,12.27,0,0,1,17.37,0A0.84,0.84,0,0,0,34.94,31,13.9,13.9,0,0,0,25.06,26.93Z"/></clipPath><clipPath id="b"><rect class="b" x="-142" y="-36.49" width="188.1" height="85.01"/></clipPath><clipPath id="c"><path class="a" d="M-42,33h-5.74a0.82,0.82,0,0,0-.82.82,0.82,0.82,0,0,0,.82.82H-42a0.82,0.82,0,0,0,.82-0.82A0.82,0.82,0,0,0-42,33Zm0.27-2.19h-6.28a0.82,0.82,0,0,0-.82.82,0.82,0.82,0,0,0,.82.82h6.28a0.82,0.82,0,0,0,.82-0.82A0.82,0.82,0,0,0-41.77,30.85ZM-44.94,8.21a8.7,8.7,0,0,0-8.65,8.72c0,2.31,1.13,4.33,2.22,6.28s2.23,4,2.23,6.31a0.82,0.82,0,0,0,.82.82h6.76a0.82,0.82,0,0,0,.82-0.82c0-2.33,1.13-4.36,2.23-6.32s2.22-4,2.22-6.29A8.69,8.69,0,0,0-44.94,8.21Zm5,14.19h0a15.85,15.85,0,0,0-2.4,6.3h-5.2a15.76,15.76,0,0,0-2.4-6.29c-1-1.85-2-3.6-2-5.48a7.06,7.06,0,0,1,7-7.09,7,7,0,0,1,7,7.06c0,1.88-1,3.63-2,5.49"/></clipPath><clipPath id="d"><path class="a" d="M-114.94,32.08a13.9,13.9,0,0,0,9.88-4.1,0.84,0.84,0,0,0,0-1.19,0.84,0.84,0,0,0-1.19,0,12.27,12.27,0,0,1-17.37,0,0.84,0.84,0,0,0-1.19,0,0.84,0.84,0,0,0,0,1.19A13.9,13.9,0,0,0-114.94,32.08Z"/></clipPath></defs><title>i</title><g class="c"><g class="d"><rect class="e" x="13.02" y="25" width="24.09" height="9.38"/></g></g><path class="e" d="M24.24,50V44a22,22,0,1,1,14.77-5v0l-0.48.39ZM25.06,1.54a20.45,20.45,0,0,0,0,40.89h0.77v4.5l11.55-8.61,0.27-.23A20.45,20.45,0,0,0,25.06,1.54Z"/></svg>