<svg xmlns="http://www.w3.org/2000/svg" xmlns:xlink="http://www.w3.org/1999/xlink" viewBox="0 0 50 50"><defs><style>.a,.b{fill:none;}.a{clip-rule:evenodd;}.c{clip-path:url(#a);}.d{clip-path:url(#b);}.e{fill:#fff;}.f{clip-path:url(#c);}.g{clip-path:url(#d);}</style><clipPath id="a"><path class="a" d="M165.06,26.93a13.9,13.9,0,0,0-9.88,4.1,0.84,0.84,0,1,0,1.19,1.19,12.27,12.27,0,0,1,17.37,0A0.84,0.84,0,0,0,174.94,31,13.9,13.9,0,0,0,165.06,26.93Z"/></clipPath><clipPath id="b"><path class="a" d="M98,33H92.22a0.82,0.82,0,1,0,0,1.64H98A0.82,0.82,0,0,0,98,33Zm0.27-2.19H91.95a0.82,0.82,0,1,0,0,1.64h6.28A0.82,0.82,0,1,0,98.23,30.85ZM95.06,8.21a8.7,8.7,0,0,0-8.65,8.72c0,2.31,1.13,4.33,2.22,6.28s2.23,4,2.23,6.31a0.82,0.82,0,0,0,.82.82h6.76a0.82,0.82,0,0,0,.82-0.82c0-2.33,1.13-4.36,2.23-6.32s2.22-4,2.22-6.29A8.69,8.69,0,0,0,95.06,8.21Zm5,14.19h0a15.85,15.85,0,0,0-2.4,6.3h-5.2a15.76,15.76,0,0,0-2.4-6.29c-1-1.85-2-3.6-2-5.48a7,7,0,1,1,14,0c0,1.88-1,3.63-2,5.49"/></clipPath><clipPath id="c"><path class="a" d="M25.06,32.08A13.9,13.9,0,0,0,34.94,28a0.84,0.84,0,1,0-1.19-1.19,12.27,12.27,0,0,1-17.37,0A0.84,0.84,0,0,0,15.18,28,13.9,13.9,0,0,0,25.06,32.08Z"/></clipPath><clipPath id="d"><rect class="b" x="3.78" y="-36.49" width="188.1" height="85.01"/></clipPath></defs><title>i</title><path class="e" d="M24.24,50V44a22,22,0,1,1,14.77-5v0l-0.48.38ZM25.06,1.54a20.45,20.45,0,0,0,0,40.89h0.77v4.5l11.55-8.61,0.27-.22A20.45,20.45,0,0,0,25.06,1.54Z"/><g class="f"><g class="g"><rect class="e" x="13.02" y="24.62" width="24.09" height="9.38"/></g></g></svg>