<?xml version="1.0" encoding="UTF-8" standalone="no"?>
<svg width="902px" height="861px" viewBox="0 0 902 861" version="1.1" xmlns="http://www.w3.org/2000/svg" xmlns:xlink="http://www.w3.org/1999/xlink" xmlns:sketch="http://www.bohemiancoding.com/sketch/ns">
    <!-- Generator: Sketch 3.4.4 (17249) - http://www.bohemiancoding.com/sketch -->
    <title>Slice 1</title>
    <desc>Created with Sketch.</desc>
    <defs></defs>
    <g id="Page-1" stroke="none" stroke-width="1" fill="none" fill-rule="evenodd" sketch:type="MSPage">
        <path d="M536.8,318 C543.2,331 555.6,340 569.9,342.1 L762.4,370.1 L898.8,325.8 C893.6,309.9 879.9,298.3 863.3,295.9 L605.5,258.4 L490.2,24.7 C482.8,9.7 467.5,0.2 450.7,0.2 L450.7,0.2 L450.7,143.6 L450.7,143.6 L536.8,318 L536.8,318 Z" id="shape-4" opacity="0.8" fill="#2D3E50" sketch:type="MSShapeGroup"></path>
        <path d="M623.2,505.8 C612.8,515.9 608.1,530.5 610.5,544.7 L643.4,736.4 L727.7,852.4 C741.2,842.6 748,825.9 745.2,809.4 L701.2,552.6 L887.8,370.7 C899.8,359 904.1,341.5 898.9,325.6 L898.9,325.6 L762.5,369.9 L762.5,369.9 L623.2,505.8 L623.2,505.8 Z" id="shape-3" opacity="0.7" fill="#2D3E50" sketch:type="MSShapeGroup"></path>
        <path d="M430.3,646 L258.1,736.5 L173.8,852.5 C187.3,862.3 205.3,863.6 220.1,855.8 L450.7,734.6 L681.3,855.8 C696.1,863.6 714.1,862.3 727.6,852.5 L643.3,736.5 L471.2,646 C458.4,639.3 443.1,639.3 430.3,646 Z" id="shape-2" opacity="0.6" fill="#2D3E50" sketch:type="MSShapeGroup"></path>
        <path d="M291,544.8 C293.4,530.5 288.7,516 278.3,505.9 L139.1,370.1 L2.7,325.8 C-2.5,341.7 1.8,359.2 13.8,370.9 L200.4,552.7 L156.4,809.5 C153.6,826 160.4,842.7 173.9,852.5 L173.9,852.5 L258.2,736.5 L258.2,736.5 L291,544.8 L291,544.8 Z" id="shape-1" opacity="0.5" fill="#2D3E50" sketch:type="MSShapeGroup"></path>
        <path d="M331.6,342.1 C345.9,340 358.3,331 364.7,318 L450.8,143.6 L450.8,0.2 C434.1,0.2 418.8,9.7 411.3,24.7 L296,258.3 L38.2,295.8 C21.6,298.2 7.9,309.8 2.7,325.7 L2.7,325.7 L139.1,370 L139.1,370 L331.6,342.1 L331.6,342.1 Z" id="shape-0" opacity="0.4" fill="#2D3E50" sketch:type="MSShapeGroup"></path>
    </g>
</svg>