<?xml version="1.0" encoding="utf-8"?>
<!-- Generator: Adobe Illustrator 19.1.1, SVG Export Plug-In . SVG Version: 6.00 Build 0)  -->
<svg version="1.1" xmlns="http://www.w3.org/2000/svg" xmlns:xlink="http://www.w3.org/1999/xlink" x="0px" y="0px"
	 viewBox="206 -116 1024 1024" style="enable-background:new 206 -116 1024 1024;" xml:space="preserve">
<style type="text/css">
	.st0{display:none;}
	.st1{display:inline;}
	.st2{opacity:0.8;fill:#2D3E50;}
	.st3{opacity:0.7;fill:#2D3E50;}
	.st4{opacity:0.6;fill:#2D3E50;}
	.st5{opacity:0.5;fill:#2D3E50;}
	.st6{opacity:0.4;fill:#2D3E50;}
</style>
<g id="Capa_1" class="st0">
	<g id="icomoon-ignore" class="st1">
	</g>
	<path class="st1" d="M968.8,805.9c-7,0-14-1.7-20.5-5.1L717.8,679.6L487.2,800.9c-14.8,7.8-32.8,6.5-46.3-3.4
		c-13.5-9.8-20.3-26.5-17.5-43l44-256.8L280.8,315.8c-12-11.7-16.3-29.2-11.1-45.1c5.2-15.9,18.9-27.5,35.5-29.9L563,203.3
		L678.3-30.3c7.4-15,22.7-24.5,39.5-24.5s32,9.5,39.5,24.5l115.3,233.6l257.8,37.5c16.6,2.4,30.3,14,35.5,29.9s0.9,33.4-11.1,45.1
		L968.2,497.7l44,256.8c2.8,16.5-4,33.2-17.5,43C987,803.1,978,805.9,968.8,805.9L968.8,805.9z M406.1,315.1l139.3,135.8
		c10.4,10.1,15.1,24.7,12.7,38.9l-32.9,191.7L697.3,591c12.8-6.7,28.1-6.7,40.9,0l172.2,90.5l-32.9-191.7
		c-2.4-14.3,2.3-28.8,12.7-38.9l139.3-135.8l-192.5-28c-14.3-2.1-26.7-11.1-33.1-24.1L717.8,88.6L631.7,263
		c-6.4,13-18.8,22-33.1,24.1L406.1,315.1L406.1,315.1z"/>
</g>
<g id="Capa_1_copia">
	<g id="icomoon-ignore_1_">
	</g>
	<path class="st2" d="M803.8,263c6.4,13,18.8,22,33.1,24.1l192.5,28l136.4-44.3c-5.2-15.9-18.9-27.5-35.5-29.9l-257.8-37.5
		L757.2-30.3c-7.4-15-22.7-24.5-39.5-24.5c0,0,0,0,0,0V88.6l0,0L803.8,263z"/>
	<path class="st3" d="M890.2,450.8c-10.4,10.1-15.1,24.7-12.7,38.9l32.9,191.7l84.3,116c13.5-9.8,20.3-26.5,17.5-43l-44-256.8
		l186.6-181.9c12-11.7,16.3-29.2,11.1-45.1c0,0,0,0,0,0l-136.4,44.3l0,0L890.2,450.8z"/>
	<path class="st4" d="M738.2,591c-12.8-6.7-28.1-6.7-40.9,0l-172.2,90.5l-84.3,116c13.5,9.8,31.5,11.1,46.3,3.3l230.6-121.2
		l230.6,121.2c14.8,7.8,32.8,6.5,46.3-3.3c0,0,0,0,0,0l-84.3-116l0,0L738.2,591z"/>
	<path class="st5" d="M558,489.8c2.4-14.3-2.3-28.8-12.7-38.9L406.1,315.1l-136.4-44.3c-5.2,15.9-0.9,33.4,11.1,45.1l186.6,181.8
		l-44,256.8c-2.8,16.5,4,33.2,17.5,43c0,0,0,0,0,0l84.3-116l0,0L558,489.8z"/>
	<path class="st6" d="M598.6,287.1c14.3-2.1,26.7-11.1,33.1-24.1l86.1-174.4V-54.8c-16.7,0-32,9.5-39.5,24.5L563,203.3l-257.8,37.5
		c-16.6,2.4-30.3,14-35.5,29.9c0,0,0,0,0,0l136.4,44.3l0,0L598.6,287.1z"/>
</g>
</svg>
