<svg xmlns="http://www.w3.org/2000/svg" xmlns:xlink="http://www.w3.org/1999/xlink" viewBox="0 0 50 50"><defs><style>.a,.b{fill:none;}.a{clip-rule:evenodd;}.c{clip-path:url(#a);}.d{clip-path:url(#b);}.e{clip-path:url(#c);}.f{fill:#fff;}.g{clip-path:url(#d);}</style><clipPath id="a"><path class="a" d="M95.06,26.93A13.9,13.9,0,0,0,85.18,31a0.84,0.84,0,1,0,1.19,1.19,12.27,12.27,0,0,1,17.37,0A0.84,0.84,0,0,0,104.94,31,13.9,13.9,0,0,0,95.06,26.93Z"/></clipPath><clipPath id="b"><path class="a" d="M28,33H22.22a0.82,0.82,0,1,0,0,1.64H28A0.82,0.82,0,0,0,28,33Zm0.27-2.19H21.95a0.82,0.82,0,1,0,0,1.64h6.28A0.82,0.82,0,1,0,28.23,30.85ZM25.06,8.21a8.7,8.7,0,0,0-8.65,8.72c0,2.31,1.13,4.33,2.22,6.28s2.23,4,2.23,6.31a0.82,0.82,0,0,0,.82.82h6.76a0.82,0.82,0,0,0,.82-0.82c0-2.33,1.13-4.36,2.23-6.32s2.22-4,2.22-6.29A8.69,8.69,0,0,0,25.06,8.21Zm5,14.19h0a15.85,15.85,0,0,0-2.4,6.3h-5.2a15.76,15.76,0,0,0-2.4-6.29c-1-1.85-2-3.6-2-5.48a7,7,0,1,1,14,0c0,1.88-1,3.63-2,5.49"/></clipPath><clipPath id="c"><rect class="b" x="-70.17" y="-0.21" width="188.1" height="85.01"/></clipPath><clipPath id="d"><path class="a" d="M-44.94,32.08A13.9,13.9,0,0,0-35.06,28a0.84,0.84,0,0,0,0-1.19,0.84,0.84,0,0,0-1.19,0,12.27,12.27,0,0,1-17.37,0,0.84,0.84,0,0,0-1.19,0,0.84,0.84,0,0,0,0,1.19A13.9,13.9,0,0,0-44.94,32.08Z"/></clipPath></defs><title>i</title><g class="d"><g class="e"><rect class="f" x="14.48" y="6.29" width="21.15" height="30.31"/></g></g><path class="f" d="M24.24,50V44a22,22,0,1,1,14.77-5v0l-0.48.39ZM25.06,1.54a20.45,20.45,0,0,0,0,40.89h0.77v4.5l11.55-8.61,0.27-.23A20.45,20.45,0,0,0,25.06,1.54Z"/></svg>